<svg width="20" height="20" viewBox="0 0 20 20" fill="none" xmlns="http://www.w3.org/2000/svg">
<mask id="mask0_132_3573" style="mask-type:alpha" maskUnits="userSpaceOnUse" x="0" y="0" width="20" height="20">
<rect width="20" height="20" fill="#D9D9D9"/>
</mask>
<g mask="url(#mask0_132_3573)">
<path d="M2.85458 17.0833C2.71333 17.0833 2.58648 17.0488 2.47402 16.9797C2.36156 16.9107 2.2741 16.8197 2.21162 16.7067C2.14664 16.5945 2.1109 16.473 2.1044 16.3421C2.0979 16.2112 2.13321 16.0816 2.21033 15.9533L9.34429 3.63009C9.42142 3.50173 9.51794 3.40683 9.63385 3.3454C9.74977 3.28396 9.87183 3.25323 10 3.25323C10.1282 3.25323 10.2503 3.28396 10.3662 3.3454C10.4821 3.40683 10.5787 3.50173 10.6558 3.63009L17.7897 15.9533C17.8669 16.0816 17.9022 16.2112 17.8957 16.3421C17.8892 16.473 17.8534 16.5945 17.7885 16.7067C17.726 16.8197 17.6385 16.9107 17.5261 16.9797C17.4136 17.0488 17.2867 17.0833 17.1455 17.0833H2.85458ZM3.70837 15.8333H16.2917L10 4.99998L3.70837 15.8333ZM10 14.8397C10.1907 14.8397 10.3506 14.7752 10.4796 14.6462C10.6086 14.5172 10.6731 14.3574 10.6731 14.1667C10.6731 13.9759 10.6086 13.8161 10.4796 13.6871C10.3506 13.5581 10.1907 13.4936 10 13.4936C9.80933 13.4936 9.64948 13.5581 9.52048 13.6871C9.39148 13.8161 9.32698 13.9759 9.32698 14.1667C9.32698 14.3574 9.39148 14.5172 9.52048 14.6462C9.64948 14.7752 9.80933 14.8397 10 14.8397ZM10.0003 12.6603C10.1775 12.6603 10.3259 12.6004 10.4455 12.4806C10.5652 12.3608 10.625 12.2123 10.625 12.0353V9.11857C10.625 8.94148 10.5651 8.79305 10.4453 8.67328C10.3254 8.55348 10.1769 8.49359 9.99977 8.49359C9.8226 8.49359 9.67419 8.55348 9.55454 8.67328C9.43489 8.79305 9.37506 8.94148 9.37506 9.11857V12.0353C9.37506 12.2123 9.43498 12.3608 9.55481 12.4806C9.67466 12.6004 9.82316 12.6603 10.0003 12.6603Z" fill="#FE5045"/>
</g>
</svg>
